<svg xmlns="http://www.w3.org/2000/svg" fill="none" viewBox="8.164 7.165 29.515 29.515">
<g clip-path="url(#clip0_3721_101113)">






















<path d="M22.9216 8C15.2306 8 8.99927 14.2314 8.99927 21.9223C8.99927 29.6133 15.2306 35.8447 22.9216 35.8447C30.6126 35.8447 36.8439 29.6133 36.8439 21.9223C36.8439 14.2314 30.6126 8 22.9216 8ZM23.2116 33.295C21.5462 33.529 18.8328 33.1079 16.999 31.9477C15.3897 30.9325 14.4307 29.6601 13.8085 28.3689C13.1722 27.0496 12.8728 25.4497 13.5512 25.5292C13.8693 25.5667 14.1406 26.1655 14.7535 26.9467C15.1698 27.48 15.5581 27.9291 15.8482 27.9946C15.9791 28.0227 16.0867 27.9619 16.1756 27.7888C16.3487 27.4566 16.5826 26.8298 16.999 26.3198C17.3358 25.9316 17.7428 25.7491 17.9814 26.6988C18.0937 27.1713 18.1873 27.6625 18.2387 28.0882C18.3136 28.6917 18.351 29.0519 18.5615 29.1502C18.7627 29.2484 19.0995 29.1221 19.6515 28.9162C20.0445 28.7712 20.5497 28.5841 21.1907 28.4016C21.7801 28.2332 22.1544 28.3221 21.7754 29.2344C21.5977 29.6648 21.4152 30.0297 20.779 30.9466C20.6667 31.1056 20.6901 31.2694 20.8258 31.405C21.041 31.6156 21.5228 31.8729 22.0561 32.1068C22.4818 32.2892 22.9871 32.453 23.3239 32.5465C23.8479 32.6962 23.745 33.2249 23.2163 33.2997L23.2116 33.295ZM30.3553 30.301C29.836 31.1431 28.7506 32.0553 27.4314 32.6635C27.2302 32.7524 27.0197 32.7243 26.9636 32.5606C26.9168 32.4202 27.0291 32.2565 27.16 32.1021C28.877 29.8753 27.5998 27.8356 24.8303 26.2497C22.7813 25.0801 21.4807 24.4065 19.9697 23.5176C15.5441 20.9118 14.688 18.6429 14.5149 17.2956C14.0798 13.9039 16.8867 11.3589 19.7685 10.7461C19.8574 10.7274 20.0866 10.69 20.1615 10.8818C20.2363 11.0736 20.0632 11.2139 19.965 11.2747C18.6738 11.9858 17.406 13.4922 17.5463 15.167C17.6212 16.1026 18.0235 17.45 20.5591 19.2558C22.0889 20.3458 23.9602 21.2393 27.7355 23.5036C31.726 25.8941 31.2722 28.8133 30.3553 30.2963V30.301ZM30.9775 17.5669C30.0652 18.6803 29.1576 18.2687 28.4559 16.6968C28.0208 15.719 27.4454 15.4804 27.0384 15.7377C26.594 16.0184 26.7718 16.6874 27.2676 17.4593C27.5904 17.9646 27.4454 18.5587 27.1086 18.9096C26.753 19.2791 26.1776 19.4242 25.5461 19.2885C24.4233 19.0406 23.3192 17.5389 24.1239 14.2548C24.4514 12.9308 23.8151 12.3648 23.4128 11.8548C23.2116 11.6022 23.1883 11.4478 23.2584 11.3449C23.338 11.2326 23.5251 11.2233 23.8526 11.2935C24.283 11.3823 24.9239 11.6069 25.4478 11.6864C25.794 11.7426 26.187 11.7566 26.5987 11.7379C27.7168 11.6958 28.5448 11.8689 29.3869 12.2852C30.8184 12.9963 30.9634 14.2173 30.1681 14.1191C29.8921 14.0863 29.5366 13.8758 29.2419 13.7355C29.0454 13.6419 28.877 13.6092 28.7506 13.6981C28.6337 13.7823 28.5822 13.96 28.6664 14.1378C28.8442 14.5121 29.4477 14.7039 30.2617 14.9331C31.6886 15.3261 31.7166 16.65 30.9728 17.5669H30.9775Z" fill="#0046FF" />
<path d="M23.2115 33.2952C21.546 33.5291 18.8327 33.1081 16.9988 31.9479C15.3895 30.9327 14.4305 29.6602 13.8083 28.3691C13.1721 27.0498 12.8727 25.4499 13.551 25.5294C13.8691 25.5668 14.1404 26.1656 14.7533 26.9469C15.1697 27.4802 15.5579 27.9293 15.848 27.9948C15.979 28.0229 16.0866 27.9621 16.1755 27.789C16.3486 27.4568 16.5825 26.8299 16.9988 26.32C17.3357 25.9317 17.7427 25.7493 17.9813 26.6989C18.0935 27.1714 18.1871 27.6626 18.2386 28.0884C18.3134 28.6918 18.3508 29.0521 18.5613 29.1503C18.7625 29.2486 19.0993 29.1222 19.6514 28.9164C20.0443 28.7714 20.5496 28.5843 21.1905 28.4018C21.78 28.2334 22.1542 28.3223 21.7753 29.2345C21.5975 29.6649 21.4151 30.0298 20.7788 30.9467C20.6665 31.1105 20.6899 31.2695 20.8256 31.4052C21.0408 31.6157 21.5227 31.873 22.056 32.1069C22.4817 32.2894 22.9869 32.4531 23.3238 32.5467C23.8477 32.6964 23.7448 33.225 23.2162 33.2999L23.2115 33.2952ZM30.3551 30.3012C29.8358 31.1432 28.7505 32.0555 27.4312 32.6636C27.2301 32.7525 27.0195 32.7245 26.9634 32.5607C26.9166 32.4204 27.0289 32.2566 27.1599 32.1023C28.8768 29.8754 27.5996 27.8357 24.8301 26.2498C22.7811 25.0803 21.4805 24.4066 19.9695 23.5178C15.5439 20.912 14.6878 18.6431 14.5147 17.2957C14.0796 13.9041 16.8866 11.3591 19.7683 10.7463C19.8572 10.7276 20.0864 10.6901 20.1613 10.8819C20.2361 11.0737 20.0631 11.2141 19.9648 11.2749C18.6736 11.986 17.4058 13.4924 17.5462 15.1672C17.621 16.1028 18.0234 17.4501 20.5589 19.2559C22.0887 20.3459 23.96 21.2395 27.7353 23.5037C31.7258 25.8943 31.272 28.8135 30.3551 30.2965V30.3012ZM30.9773 17.5671C30.065 18.6805 29.1575 18.2688 28.4557 16.6969C28.0207 15.7192 27.4453 15.4806 27.0383 15.7379C26.5938 16.0186 26.7716 16.6876 27.2675 17.4595C27.5903 17.9647 27.4453 18.5589 27.1084 18.9097C26.7529 19.2793 26.1775 19.4243 25.5459 19.2887C24.4231 19.0407 23.3191 17.539 24.1237 14.2549C24.4512 12.931 23.815 12.3649 23.408 11.855C23.2068 11.6024 23.1834 11.448 23.2536 11.3451C23.3331 11.2328 23.5202 11.2234 23.8477 11.2936C24.2781 11.3825 24.919 11.6071 25.443 11.6866C25.7892 11.7427 26.1821 11.7568 26.5938 11.738C27.7119 11.6959 28.54 11.869 29.382 12.2854C30.8136 12.9965 30.9586 14.2175 30.1633 14.1192C29.8873 14.0865 29.5317 13.876 29.237 13.7356C29.0405 13.6421 28.8721 13.6093 28.7458 13.6982C28.6288 13.7824 28.5774 13.9602 28.6616 14.138C28.8394 14.5122 29.4428 14.704 30.2569 14.9333C31.6837 15.3262 31.7118 16.6502 30.9679 17.5671H30.9773Z" fill="white" />
</g>
<defs>
<clipPath id="clip0_3721_101113">
<rect width="342" height="29.9171" fill="white" transform="translate(9 8)" />
</clipPath>
</defs>
</svg>
